<?xml version="1.0" encoding="UTF-8" standalone="no"?>
<!-- Created with Inkscape (http://www.inkscape.org/) -->

<svg
   xmlns:dc="http://purl.org/dc/elements/1.1/"
   xmlns:cc="http://creativecommons.org/ns#"
   xmlns:rdf="http://www.w3.org/1999/02/22-rdf-syntax-ns#"
   xmlns:svg="http://www.w3.org/2000/svg"
   xmlns="http://www.w3.org/2000/svg"
   xmlns:sodipodi="http://sodipodi.sourceforge.net/DTD/sodipodi-0.dtd"
   xmlns:inkscape="http://www.inkscape.org/namespaces/inkscape"
   width="210mm"
   height="297mm"
   viewBox="0 0 210 297"
   version="1.1"
   id="svg3587"
   inkscape:version="0.92.2 (5c3e80d, 2017-08-06)"
   sodipodi:docname="cr_logo.svg">
  <defs
     id="defs3581" />
  <sodipodi:namedview
     id="base"
     pagecolor="#ffffff"
     bordercolor="#666666"
     borderopacity="1.0"
     inkscape:pageopacity="0.0"
     inkscape:pageshadow="2"
     inkscape:zoom="0.35"
     inkscape:cx="-70"
     inkscape:cy="445.71429"
     inkscape:document-units="mm"
     inkscape:current-layer="layer1"
     showgrid="false"
     inkscape:window-width="1075"
     inkscape:window-height="763"
     inkscape:window-x="30"
     inkscape:window-y="30"
     inkscape:window-maximized="0" />
  <metadata
     id="metadata3584">
    <rdf:RDF>
      <cc:Work
         rdf:about="">
        <dc:format>image/svg+xml</dc:format>
        <dc:type
           rdf:resource="http://purl.org/dc/dcmitype/StillImage" />
        <dc:title></dc:title>
      </cc:Work>
    </rdf:RDF>
  </metadata>
  <g
     inkscape:label="Layer 1"
     inkscape:groupmode="layer"
     id="layer1">
    <path
       style="fill:#a02c2c;fill-opacity:1;stroke:none;stroke-width:1.76433408;stroke-miterlimit:4;stroke-dasharray:7.05733631, 1.76433406;stroke-dashoffset:0"
       id="path3573"
       d="m 55.320698,157.38774 c 0.372113,-2.87784 0.454818,-5.80433 0.557654,-8.71728 0.03853,-3.44692 0.227493,-6.93785 -0.274531,-10.33909 -0.344829,-1.79887 -0.79065,-3.55241 -1.166691,-5.34008 -0.343497,-1.88213 -1.065584,-3.58073 -1.702722,-5.30117 -0.727797,-2.20359 -1.638689,-4.25033 -2.643954,-6.23431 -0.900954,-1.53562 -1.903088,-2.89642 -3.236064,-3.68033 -1.295486,-0.76678 -2.277348,0.0611 -3.467433,0.72818 -0.221911,0.15673 -0.882269,0.6397 -0.665765,0.46959 2.263779,-1.77823 4.532745,-3.54442 6.808197,-5.29475 0.243085,-0.18699 -0.469199,0.41332 -0.7105,0.60455 -2.700652,2.14053 -5.419658,4.23785 -8.114979,6.39085 -2.178168,1.74011 4.370875,-3.44578 6.563458,-5.15157 0.302659,-0.2354 -0.595651,0.4938 -0.893463,0.74034 -2.744625,2.16262 -5.482238,4.34194 -8.233859,6.48792 -0.302748,0.23601 -0.62162,0.43147 -0.928398,0.65756 -0.302173,0.22269 -1.195742,0.92321 -0.89822,0.68896 14.27879,-11.23907 1.962764,-1.46501 -2.883433,2.19257 -5.094559,3.89348 6.131509,-4.85583 4.59213,-3.65728 -2.843734,2.21418 -5.680286,4.44555 -8.516085,6.67861 -2.030338,1.59892 4.05056,-3.22242 6.099745,-4.77583 0.663167,-0.50288 -1.258851,1.15637 -1.878995,1.75275 -1.477276,1.45574 -2.847719,3.12026 -4.097099,4.92985 -2.011098,2.7136 -3.26376,6.16804 -4.520889,9.57327 -1.415328,4.32422 -2.867229,8.70937 -3.741204,13.31178 -0.250879,1.32121 -0.443614,2.66185 -0.665429,3.99289 -0.89318,7.00968 -1.543957,14.11739 -1.462753,21.24259 -0.08225,3.65388 0.789218,7.04296 1.702325,10.41721 0.816298,2.62441 1.820757,5.14232 2.996612,7.49743 1.092177,2.1751 2.572019,3.78153 4.179033,5.19213 2.130291,2.10991 4.607572,2.89927 7.116646,3.70767 2.437389,0.8204 4.933118,1.04715 7.433711,0.95573 2.465396,0 4.866101,-0.59305 7.247622,-1.39748 3.038841,-1.3318 6.092281,-2.5901 9.103686,-4.0364 2.545932,-1.32862 5.078673,-2.63735 7.577023,-4.1319 3.346838,-1.90337 11.845619,-8.68715 -1.787311,1.93992 1.010796,-0.87498 2.028509,-1.67893 2.932248,-2.75596 0.54267,-0.56038 1.093995,-1.06651 1.575521,-1.72571 0,0 8.042931,-4.52367 8.042931,-4.52367 v 0 c -0.513454,0.64176 -0.883838,1.46791 -1.568974,1.82 -0.461586,0.48653 -0.835824,1.1062 -1.304055,1.57452 -0.400414,0.40061 -0.633223,0.46598 -1.057957,0.81067 -0.194891,0.15855 -0.378268,0.34191 -0.567358,0.51316 -4.270402,3.39918 -8.382328,6.94972 -12.932175,9.55409 -2.513517,1.4857 -5.075691,2.77823 -7.641808,4.0827 -3.055034,1.39426 -6.139099,2.66392 -9.208068,3.99894 -2.393044,0.72708 -4.819474,1.1038 -7.274629,1.111 -2.56235,0.0182 -5.112068,-0.19789 -7.591094,-1.16014 -2.583307,-0.86015 -5.100531,-1.88696 -7.298712,-4.01963 -1.704503,-1.52686 -3.262143,-3.1976 -4.391002,-5.5647 -1.203661,-2.44912 -2.258584,-5.04308 -3.025326,-7.8068 -0.915915,-3.51077 -2.024665,-6.9905 -1.812568,-10.79682 0.09704,-7.25229 0.938736,-14.42948 1.629032,-21.60987 0.346686,-2.61816 0.540321,-4.57553 1.092186,-7.07951 0.786197,-3.56734 2.055653,-6.93834 3.063579,-10.38732 1.204044,-3.39168 2.257978,-6.99098 4.205517,-9.74285 1.235895,-1.89889 2.594713,-3.63664 4.068132,-5.18939 3.529731,-3.37612 5.811894,-4.9532 10.38472,-8.5801 2.010358,-1.59439 -8.053441,6.34928 -6.03115,4.78322 16.668121,-12.90777 4.513655,-3.67168 9.967721,-7.81048 0.407812,-0.30681 1.624377,-1.24279 1.223442,-0.91964 -2.157984,1.73895 -8.672761,6.86033 -6.495049,5.16791 2.747504,-2.13539 5.465419,-4.3411 8.204502,-6.49652 0.2973,-0.23419 0.602975,-0.44781 0.904314,-0.67153 0.306514,-0.22814 1.220307,-0.92576 0.919234,-0.68467 -2.147089,1.71947 -4.305121,3.41328 -6.457679,5.12011 0.291852,-0.24509 0.579876,-0.49865 0.875604,-0.73447 27.285096,-21.769505 -4.635524,3.65153 2.226134,-1.80201 2.668541,-2.12087 5.33026,-4.25819 8.016593,-6.33682 0.2224,-0.17186 0.47003,-0.27474 0.705053,-0.4115 1.439901,-0.73411 2.4777,-0.90609 3.901452,0.0545 1.373879,1.03323 2.486671,2.51282 3.431781,4.21879 1.02498,2.02078 1.925436,4.11695 2.687153,6.34668 0.736259,1.73321 1.437124,3.55017 1.811841,5.49603 0.41623,1.8123 0.862267,3.61116 1.18706,5.45808 0.486625,3.51351 0.257304,7.08703 0.256727,10.64173 -0.01288,2.91385 -0.103465,5.82359 -0.342257,8.72099 0,0 -7.800663,5.24112 -7.800663,5.24112 z"
       inkscape:connector-curvature="0" />
    <path
       style="fill:#a02c2c;fill-opacity:1;stroke:none;stroke-width:1.76433408;stroke-miterlimit:4;stroke-dasharray:7.05733631, 1.76433406;stroke-dashoffset:0"
       id="path3575"
       d="m 74.082989,121.46241 c -0.63216,2.26477 -0.846188,4.67127 -0.994971,7.06941 -0.11339,2.36789 -0.139076,4.74188 -0.140848,7.11431 -0.06333,2.01866 0.04828,4.0041 0.254246,5.9994 0.271079,3.99223 0.465705,8.00048 0.675436,12.00186 0.224127,3.57067 0.18825,7.15479 0.203309,10.73454 0.10232,3.05238 -0.159458,6.08078 -0.670121,9.04698 -0.515401,3.12288 -1.488049,6.03225 -2.4158,8.95446 -0.962903,3.35886 -2.070703,6.63781 -2.999863,10.01442 -1.190722,4.16209 -2.497426,8.26784 -3.832802,12.34831 -0.973869,3.34107 -2.145684,6.54189 -3.652271,9.49194 -1.213016,2.45212 -2.652669,4.65444 -4.072654,6.88096 -1.184069,1.57889 -2.203185,3.38253 -3.467369,4.84422 -1.131729,1.3885 -2.387547,2.5562 -3.636976,3.73208 -4.215674,3.88577 -8.661063,7.30461 -13.555083,9.16691 -1.622365,0.45628 -3.29878,1.38349 -4.77618,-0.0241 -0.551471,-0.84928 -0.639085,-1.90967 -0.771984,-2.98098 0,0 7.633665,-5.52132 7.633665,-5.52132 v 0 c 0.07291,0.68957 0.06914,1.4836 0.431288,2.02767 1.353649,0.7139 2.928303,-0.31587 4.263667,-0.65294 1.1335,-0.49441 2.241699,-1.03801 3.340252,-1.66519 0.363828,-0.20757 1.42019,-0.92781 1.084652,-0.64491 -4.604679,3.88336 -8.802754,6.81947 -5.686484,4.62352 1.219532,-1.2069 2.52941,-2.24619 3.648762,-3.63482 0.36879,-0.41635 0.783771,-0.75578 1.139501,-1.19318 0.876638,-1.07771 1.460872,-2.58882 2.452095,-3.52486 1.425175,-2.20476 2.892067,-4.35236 4.098309,-6.79596 1.64341,-2.80904 2.826475,-6.02922 3.846516,-9.33362 1.34064,-4.01112 2.626223,-8.06247 3.736858,-12.20374 0.9363,-3.42176 2.095783,-6.71909 3.070108,-10.12118 0.896532,-2.85322 1.793593,-5.70607 2.356514,-8.72371 0.615452,-2.86108 0.887696,-5.84362 0.849607,-8.82604 -0.0084,-3.56443 -0.06094,-7.12823 -0.163576,-10.69007 -0.139698,-3.95399 -0.32463,-7.9076 -0.781355,-11.82043 -0.211415,-2.05218 -0.395191,-4.08657 -0.287069,-6.16658 0.01059,-2.40572 -0.0011,-4.81312 0.138289,-7.21357 0.135578,-2.44535 0.286004,-4.89941 0.804839,-7.26094 0,0 7.877626,-5.05438 7.877626,-5.05438 z"
       inkscape:connector-curvature="0" />
    <path
       style="fill:#a02c2c;fill-opacity:1;stroke:none;stroke-width:1.76433408;stroke-miterlimit:4;stroke-dasharray:7.05733631, 1.76433406;stroke-dashoffset:0"
       id="path3577"
       d="m 73.705474,124.42655 c 4.071838,-1.62416 8.331084,-1.37393 12.529426,-1.53677 6.258313,-0.13616 12.509313,-0.50591 18.75966,-0.93762 2.19297,0.0738 4.4225,-0.16158 6.60113,0.30439 0.65861,0.141 1.46848,0.4466 2.12115,0.6768 1.36758,0.63256 2.4227,1.92322 3.20957,3.54054 0.92092,2.22574 0.95643,4.85687 1.06638,7.34578 0.29101,3.44596 -0.1785,6.4178 -1.15643,9.58737 -1.12359,3.08408 -2.84667,5.62591 -4.77629,7.80038 -2.72996,2.98623 -5.64302,5.63993 -8.48735,8.4161 -4.205817,4.16761 -8.323196,8.48777 -12.658447,12.40412 -5.502484,4.32063 -7.185295,6.29123 -11.850048,8.78071 -5.024155,2.68104 -10.297502,4.44166 -15.517566,6.2421 -4.634705,1.58355 -9.339643,2.6166 -14.103931,3.0258 -2.004577,0.3286 -3.977399,-0.12825 -5.960272,-0.446 -1.01013,-0.24749 -2.570028,-1.19765 -1.903876,-3.01919 0.117237,-0.32073 0.378181,-0.49684 0.56728,-0.74537 2.773942,-2.14114 5.365757,-4.79979 8.321848,-6.42384 0.689043,-0.37821 1.454492,0.41333 2.175459,0.65708 0.844955,0.28563 1.708397,0.50347 2.521055,0.92933 2.726574,1.42899 5.591495,3.91554 8.067863,6.03138 1.768178,1.75856 3.699838,3.32234 5.291943,5.39805 2.063677,2.69055 3.900602,5.78868 5.726791,8.76825 3.809885,6.18704 7.748488,12.21989 11.683149,18.25806 2.421804,3.8421 5.129392,7.3127 7.644625,11.03592 3.667342,4.75182 7.043597,9.87972 10.641877,14.73066 5.47308,7.16902 10.63242,14.7588 16.34911,21.5735 3.94596,4.70267 8.17309,9.03149 13.10055,11.64627 1.57898,0.838 3.22609,1.41314 4.83914,2.1196 3.10096,0.92636 7.3545,2.33987 10.54839,2.74447 4.76047,0.60272 11.01379,0.21179 15.74361,-0.93987 1.54882,-0.377 3.05902,-1.00629 4.58848,-1.50936 3.66186,-1.46391 7.25966,-3.21508 10.67245,-5.55817 0.83338,-0.57186 3.27717,-2.43609 2.45725,-1.82845 -5.48646,4.06489 -6.29977,5.01407 -2.75507,1.5902 5.06569,-5.69874 10.54599,-10.62344 16.0576,-15.46573 0,0 7.20916,-3.83657 7.20916,-3.83657 v 0 c -5.34558,4.72602 -10.62857,9.60267 -15.54902,15.13713 -7.44951,7.34995 -15.4475,13.30565 -24.34963,16.47397 -1.54722,0.46777 -3.07655,1.06409 -4.64167,1.40273 -1.55374,0.33585 -3.1278,0.47686 -4.69754,0.61791 -3.31796,0.29834 -7.80341,0.4684 -11.09762,0.0182 -2.54167,-0.3516 -8.20384,-2.14072 -10.61253,-2.85644 -1.69423,-0.69247 -3.4233,-1.24219 -5.08267,-2.0776 -0.90647,-0.45629 -6.09943,-3.88432 -7.05453,-4.67737 -0.661,-0.54888 -1.22526,-1.29055 -1.82535,-1.95706 -1.81844,-2.01997 -2.62233,-3.03445 -4.42802,-5.20766 -2.8995,-3.62255 -5.64435,-7.42263 -8.4683,-11.1518 -2.63401,-3.47847 -5.344397,-6.84835 -7.847352,-10.51059 -3.651802,-4.8671 -7.429127,-9.54398 -11.032294,-14.47608 -2.492321,-3.75289 -5.206644,-7.22397 -7.575607,-11.12844 -3.811349,-6.15775 -7.572735,-12.37348 -11.476887,-18.42286 -3.368365,-5.03647 -6.7458,-10.09236 -10.979843,-13.81754 -3.205962,-2.7797 -6.626545,-5.82534 -10.496515,-6.42498 -0.684493,-0.10595 -2.58668,0.64254 -2.066574,0.0241 1.884315,-2.23577 4.293906,-3.477 6.440864,-5.21565 -0.209199,0.13614 -0.418354,0.27111 -0.627548,0.40606 -0.175005,0 -0.357363,-0.0932 -0.525069,-0.0241 -0.461345,0.18881 1.803488,1.25593 1.491997,0.89822 1.913296,0.33465 3.820993,0.6469 5.755316,0.38608 4.60169,-0.35341 9.155063,-1.33852 13.637695,-2.81061 4.093265,-1.39197 8.172677,-2.82097 12.156195,-4.73772 1.156953,-0.55673 2.299777,-1.17023 3.429045,-1.82445 0.903019,-0.52346 3.461156,-2.48814 2.664493,-1.70634 -1.595417,1.56576 -3.387499,2.71874 -5.08125,4.0781 4.409181,-3.88977 8.616868,-8.15263 12.823235,-12.43932 2.743992,-2.70218 5.523549,-5.34098 8.176179,-8.20704 1.99596,-1.94791 3.74614,-4.39554 4.98841,-7.30063 0.43319,-1.2178 0.75596,-1.98681 1.02536,-3.30133 0.38491,-1.87892 0.30341,-3.82382 0.26089,-5.74818 -0.0815,-2.26285 -0.0962,-4.68998 -0.91322,-6.72388 -0.7144,-1.36564 -1.60607,-2.41885 -2.81601,-2.87737 -2.73741,-0.94052 -5.5591,-0.9522 -8.369697,-0.91123 -6.177655,0.26264 -12.35412,0.55976 -18.533943,0.70512 -4.34615,0.26142 -8.73701,0.41937 -12.919172,2.23324 0,0 6.892693,-7.20072 6.892693,-7.20072 z"
       inkscape:connector-curvature="0" />
  </g>
</svg>
