<?xml version="1.0" encoding="UTF-8" standalone="no"?>
<!-- Created with Inkscape (http://www.inkscape.org/) -->

<svg
   xmlns:dc="http://purl.org/dc/elements/1.1/"
   xmlns:cc="http://creativecommons.org/ns#"
   xmlns:rdf="http://www.w3.org/1999/02/22-rdf-syntax-ns#"
   xmlns:svg="http://www.w3.org/2000/svg"
   xmlns="http://www.w3.org/2000/svg"
   xmlns:sodipodi="http://sodipodi.sourceforge.net/DTD/sodipodi-0.dtd"
   xmlns:inkscape="http://www.inkscape.org/namespaces/inkscape"
   width="210mm"
   height="297mm"
   viewBox="0 0 210 297"
   version="1.1"
   id="svg4233"
   inkscape:version="0.92.2 (5c3e80d, 2017-08-06)"
   sodipodi:docname="flowery_thing.svg">
  <defs
     id="defs4227" />
  <sodipodi:namedview
     id="base"
     pagecolor="#ffffff"
     bordercolor="#666666"
     borderopacity="1.0"
     inkscape:pageopacity="0.0"
     inkscape:pageshadow="2"
     inkscape:zoom="5.6"
     inkscape:cx="321.12239"
     inkscape:cy="726.92278"
     inkscape:document-units="mm"
     inkscape:current-layer="layer1"
     showgrid="false"
     inkscape:window-width="1105"
     inkscape:window-height="809"
     inkscape:window-x="447"
     inkscape:window-y="53"
     inkscape:window-maximized="0" />
  <metadata
     id="metadata4230">
    <rdf:RDF>
      <cc:Work
         rdf:about="">
        <dc:format>image/svg+xml</dc:format>
        <dc:type
           rdf:resource="http://purl.org/dc/dcmitype/StillImage" />
        <dc:title></dc:title>
      </cc:Work>
    </rdf:RDF>
  </metadata>
  <g
     inkscape:label="Layer 1"
     inkscape:groupmode="layer"
     id="layer1">
    <path
       id="shapes-f22-en.svgpath3627"
       sodipodi:argument="-21.729349"
       style="color:#000000;fill:none;stroke:#000000;stroke-width:1.44630003pt"
       transform="matrix(0.04734719,-0.17669933,0.17669933,0.04734719,-1088.8209,-197.27052)"
       sodipodi:t0="0.53471386"
       sodipodi:radius="30.881491"
       sodipodi:expansion="3.8924387"
       sodipodi:revolution="3.7046297"
       sodipodi:type="spiral"
       d="m 36.158393,6582.6982 c -0.323663,-1.9904 1.41952,-3.6226 3.279794,-3.8639 3.0577,-0.3965 5.516344,2.2864 5.813106,5.1629 0.464307,4.5004 -3.495562,8.0651 -7.752278,8.4114 -6.395906,0.5203 -11.402444,-5.1252 -11.785885,-11.2026 -0.557003,-8.8283 7.260817,-15.6736 15.682569,-16.0744 11.888629,-0.5656 21.035508,9.9959 21.425185,21.3755 0.466259,13.616 -10.268512,24.9595 -23.270662,27.4461"
       sodipodi:cy="6583.0801"
       sodipodi:cx="38.83165" />
    <path
       id="shapes-f22-en.svgpath3628"
       sodipodi:argument="-21.729349"
       style="color:#000000;fill:none;stroke:#000000;stroke-width:1.44630003pt"
       transform="matrix(-0.04734719,-0.17669933,-0.17669933,0.04734719,1252.1066,-199.20198)"
       sodipodi:t0="0.53471386"
       sodipodi:radius="30.881491"
       sodipodi:expansion="3.8924387"
       sodipodi:revolution="3.7046297"
       sodipodi:type="spiral"
       d="m 36.158393,6582.6982 c -0.323663,-1.9904 1.41952,-3.6226 3.279794,-3.8639 3.0577,-0.3965 5.516344,2.2864 5.813106,5.1629 0.464307,4.5004 -3.495562,8.0651 -7.752278,8.4114 -6.395906,0.5203 -11.402444,-5.1252 -11.785885,-11.2026 -0.557003,-8.8283 7.260817,-15.6736 15.682569,-16.0744 11.888629,-0.5656 21.035508,9.9959 21.425185,21.3755 0.466259,13.616 -10.268512,24.9595 -23.270662,27.4461"
       sodipodi:cy="6583.0801"
       sodipodi:cx="38.83165" />
    <path
       id="shapes-f22-en.svgpath3629"
       sodipodi:argument="-21.729349"
       style="color:#000000;fill:none;stroke:#000000;stroke-width:1.44630003pt"
       transform="matrix(0.12935479,-0.12935479,0.12935479,0.12935479,-778.35884,-746.6249)"
       sodipodi:t0="0.53471386"
       sodipodi:radius="30.881491"
       sodipodi:expansion="3.8924387"
       sodipodi:revolution="3.7046297"
       sodipodi:type="spiral"
       d="m 36.158393,6582.6982 c -0.323663,-1.9904 1.41952,-3.6226 3.279794,-3.8639 3.0577,-0.3965 5.516344,2.2864 5.813106,5.1629 0.464307,4.5004 -3.495562,8.0651 -7.752278,8.4114 -6.395906,0.5203 -11.402444,-5.1252 -11.785885,-11.2026 -0.557003,-8.8283 7.260817,-15.6736 15.682569,-16.0744 11.888629,-0.5656 21.035508,9.9959 21.425185,21.3755 0.466259,13.616 -10.268512,24.9595 -23.270662,27.4461"
       sodipodi:cy="6583.0801"
       sodipodi:cx="38.83165" />
    <path
       id="shapes-f22-en.svgpath3630"
       sodipodi:argument="-21.729349"
       style="color:#000000;fill:none;stroke:#000000;stroke-width:0.26457589pt"
       sodipodi:t0="0.53471386"
       sodipodi:radius="5.6492414"
       sodipodi:expansion="3.8924387"
       sodipodi:revolution="3.7046297"
       sodipodi:type="spiral"
       d="m 84.672793,95.8025 c -0.05921,-0.364108 0.259677,-0.662699 0.599982,-0.706832 0.559354,-0.07254 1.009121,0.418261 1.063409,0.944458 0.08494,0.823275 -0.639454,1.475371 -1.418147,1.538721 -1.170022,0.09519 -2.085883,-0.937553 -2.156027,-2.049315 -0.101894,-1.614994 1.328243,-2.867225 2.868859,-2.94053 2.174821,-0.103482 3.848087,1.82857 3.919371,3.910273 0.08529,2.490811 -1.878449,4.565925 -4.25697,5.020795"
       sodipodi:cy="95.87236"
       sodipodi:cx="85.161819" />
  </g>
</svg>
